<?xml version="1.0" encoding="utf-8"?>
<!-- Generator: Adobe Illustrator 24.1.0, SVG Export Plug-In . SVG Version: 6.00 Build 0)  -->
<svg version="1.1" id="Layer_1" xmlns="http://www.w3.org/2000/svg" xmlns:xlink="http://www.w3.org/1999/xlink" x="0px" y="0px"
	 viewBox="0 0 424.93 424.48" style="enable-background:new 0 0 424.93 424.48;" xml:space="preserve">
<style type="text/css">
	.st0{fill:#FFFFFF;}
</style>
<g>
	<g>
		<defs>
			<circle id="SVGID_1_" cx="212.69" cy="212.24" r="212.24"/>
		</defs>
		<use xlink:href="#SVGID_1_"  style="overflow:visible;fill:#003339;"/>
		<clipPath id="SVGID_2_">
			<use xlink:href="#SVGID_1_"  style="overflow:visible;"/>
		</clipPath>
	</g>
</g>
<g>
	<path class="st0" d="M293.34,185.46c-10.74,0-21.49,0-32.23,0c-5.64,0-10.09-2.42-13.56-6.75c-2.37-2.95-3.57-6.37-3.6-10.12
		c-0.07-9.62-0.12-19.24-0.01-28.85c0.1-9.03,7.63-16.59,16.65-16.72c8.42-0.12,16.85-0.04,25.27-0.04c13.2,0,26.4,0,39.6,0.01
		c6.46,0,11.27,2.98,14.76,8.27c1.77,2.68,2.55,5.69,2.56,8.86c0.04,9.35,0.07,18.7-0.03,28.06c-0.08,8.44-5.83,15.35-14,16.99
		c-1.35,0.27-2.77,0.28-4.15,0.29C314.17,185.48,303.76,185.47,293.34,185.46C293.34,185.47,293.34,185.46,293.34,185.46z
		 M293.27,178.45c10.68,0,21.36,0.03,32.04-0.01c5.69-0.02,9.96-4.09,10.31-9.74c0.07-1.06,0.03-2.12,0.03-3.18
		c0-6.37-0.01-12.74-0.01-19.11c0-2.25,0.11-4.51,0.02-6.76c-0.22-5.77-5.54-9.7-10.42-9.68c-21.3,0.11-42.59,0.03-63.89,0.05
		c-5.89,0.01-10.36,4.39-10.41,10.29c-0.07,9.22-0.02,18.44,0.01,27.66c0.01,2.23,0.56,4.34,1.94,6.15
		c2.14,2.81,4.93,4.33,8.52,4.32C272.04,178.44,282.65,178.45,293.27,178.45z"/>
	<path class="st0" d="M134.59,215.45c3.15,0,6-0.05,8.84,0.01c2.18,0.05,4.41-0.01,6.53,0.39c6.95,1.32,11.65,7.06,11.67,14.1
		c0.03,9.22,0.01,18.45,0,27.67c0,2.62-0.67,3.29-3.29,3.33c-1.26,0.02-2.52,0.03-3.78-0.01c-2.36-0.07-3.04-0.77-3.05-3.16
		c-0.01-8.69-0.01-17.39-0.01-26.08c0-0.66,0.02-1.33-0.02-1.99c-0.18-3.15-2.39-5.3-5.52-5.33c-3.25-0.03-6.5-0.01-9.76,0
		c-0.45,0-0.9,0.07-1.62,0.13c0,0.83,0,1.6,0,2.37c0,9.89,0,19.78,0,29.66c0,0.6,0.02,1.2-0.02,1.79c-0.09,1.7-0.73,2.46-2.41,2.56
		c-1.78,0.1-3.59,0.1-5.37-0.01c-1.57-0.1-2.22-0.87-2.34-2.44c-0.04-0.53-0.02-1.06-0.02-1.59c0-18.18,0-36.37,0-54.55
		c0-0.4,0.02-0.8,0-1.19c-0.07-1.48,0.68-2.5,2.04-2.8c1.93-0.43,3.91-0.7,5.88-0.85c1.15-0.08,2.02,0.92,2.19,2.17
		c0.07,0.52,0.04,1.06,0.04,1.59c0,3.98,0,7.96,0,11.95C134.59,213.84,134.59,214.49,134.59,215.45z"/>
	<path class="st0" d="M302.41,224.62c-0.04,0.74-0.11,1.52-0.11,2.3c-0.01,10.08,0,20.17-0.01,30.25c0,3.27-0.51,3.78-3.8,3.79
		c-1.26,0.01-2.53,0.05-3.78-0.04c-1.69-0.12-2.36-0.82-2.53-2.49c-0.05-0.53-0.03-1.06-0.03-1.59c0-18.18,0-36.36,0-54.54
		c0-0.4,0.01-0.8,0.01-1.19c0-1.45,0.71-2.5,2.08-2.79c1.93-0.41,3.91-0.69,5.88-0.84c1.08-0.08,1.92,0.85,2.12,2
		c0.09,0.52,0.06,1.06,0.06,1.59c0,3.98,0,7.96,0,11.94c0,0.71,0,1.43,0,2.27c0.8,0.07,1.37,0.15,1.94,0.16
		c3.52,0.02,7.03-0.05,10.55,0.03c5.11,0.12,9.19,2.31,12.18,6.45c1.48,2.04,2.32,4.35,2.33,6.87c0.05,9.82,0.05,19.64,0.03,29.46
		c0,1.82-0.7,2.58-2.48,2.68c-1.72,0.1-3.45,0.1-5.17-0.01c-1.66-0.1-2.33-0.87-2.46-2.55c-0.05-0.59-0.02-1.19-0.02-1.79
		c0-8.63,0.02-17.25-0.03-25.88c-0.01-1.16-0.17-2.42-0.65-3.46c-0.8-1.71-2.28-2.8-4.24-2.83c-3.71-0.06-7.43-0.01-11.15,0
		C302.96,224.42,302.77,224.52,302.41,224.62z"/>
	<path class="st0" d="M157.35,163.36c0,2.92-0.04,5.83,0.01,8.75c0.11,6.85-5.03,12.41-11.41,13.61c-4.45,0.84-9,0.78-13.46,0.12
		c-6.94-1.03-11.78-6.02-12.15-12.94c-0.34-6.47-0.17-12.99,0.02-19.47c0.18-6.04,5.34-11.24,11.43-12.36
		c4.71-0.87,9.53-0.86,14.24,0.02c5.99,1.12,11.5,6.66,11.33,13.71C157.29,157.66,157.35,160.51,157.35,163.36z M147.21,163.4
		c0-2.78,0-5.57,0-8.35c0-0.2-0.01-0.4-0.02-0.6c-0.2-2.77-2.26-4.88-4.99-4.96c-2.32-0.07-4.64-0.07-6.96,0
		c-2.3,0.07-4.13,1.62-4.64,3.91c-0.21,0.96-0.27,1.97-0.29,2.96c-0.05,2.92-0.03,5.83-0.04,8.75c-0.01,2.12,0.05,4.25-0.03,6.36
		c-0.12,2.87,2.08,6.11,5.81,5.88c1.85-0.11,3.71,0,5.57-0.02c3.49-0.05,5.52-2.06,5.59-5.57
		C147.25,168.97,147.21,166.19,147.21,163.4z"/>
	<path class="st0" d="M166.62,158.14c0-4.78-0.01-9.56,0-14.33c0.01-2.53,0.63-3.14,3.2-3.17c1.39-0.02,2.79-0.04,4.18,0.01
		c2.02,0.08,2.74,0.8,2.75,2.84c0.03,4.38,0.01,8.76,0.01,13.14c0,4.98,0.02,9.96-0.01,14.93c-0.01,1.61,0.43,3,1.53,4.18
		c0.95,1.02,2.09,1.6,3.51,1.59c2.12-0.01,4.25-0.08,6.37,0.03c3.14,0.17,5.32-2.55,5.48-5.17c0.04-0.6,0.02-1.19,0.02-1.79
		c0-8.63,0-17.26,0-25.88c0-0.6-0.03-1.2,0.04-1.79c0.13-1.17,0.69-1.92,1.86-1.98c2.11-0.11,4.24-0.1,6.36,0.02
		c1.11,0.06,1.73,0.91,1.85,2.02c0.06,0.53,0.04,1.06,0.04,1.59c0,8.89-0.12,17.79,0.03,26.68c0.16,9.3-7.16,14.99-14.88,15.08
		c-3.51,0.04-7.04,0.04-10.52-0.37c-5.54-0.64-11.96-5.97-11.85-13.89C166.68,167.3,166.62,162.72,166.62,158.14z"/>
	<path class="st0" d="M171.8,233.04c0-4.78-0.01-9.56,0-14.33c0.01-2.68,0.57-3.23,3.28-3.25c1.46-0.01,2.92-0.04,4.38,0.02
		c1.7,0.08,2.41,0.78,2.46,2.47c0.06,2.45,0.02,4.91,0.02,7.37c0,6.97,0.02,13.94-0.01,20.9c-0.01,1.6,0.37,3.02,1.46,4.21
		c0.98,1.07,2.16,1.72,3.67,1.7c2.12-0.02,4.25-0.12,6.37,0.03c2.43,0.16,5.11-1.93,5.39-5.06c0.05-0.59,0.03-1.19,0.03-1.79
		c0-8.63,0-17.25,0-25.88c0-0.6-0.03-1.2,0.03-1.79c0.13-1.37,0.77-2.08,2.14-2.13c1.92-0.08,3.85-0.08,5.77,0.01
		c1.37,0.06,2.02,0.78,2.17,2.13c0.07,0.59,0.03,1.19,0.03,1.79c0,8.69-0.18,17.39,0.05,26.08c0.24,8.86-6.23,14.98-14.37,15.38
		c-3.43,0.17-6.9,0.05-10.33-0.22c-5.9-0.47-12.7-5.91-12.57-14.09C171.87,242.07,171.81,237.55,171.8,233.04L171.8,233.04z"/>
	<path class="st0" d="M96.15,186.32c-2.76-0.3-5.53-0.6-8.29-0.91c-0.26-0.03-0.53-0.06-0.78-0.13c-4.77-1.29-4.65-2.42-4.27-6.98
		c0.14-1.68,1.51-2.44,3.2-2.04c3.78,0.88,7.61,1.08,11.46,1.07c0.6,0,1.2-0.01,1.79-0.1c1.91-0.32,3.42-1.86,3.68-3.69
		c0.29-2-0.41-3.2-2.55-4.19c-3.67-1.7-7.37-3.33-11.02-5.07c-1.07-0.51-2.11-1.14-3.01-1.9c-4.92-4.14-4.36-11.56-1.32-15.76
		c2.21-3.05,5.27-4.87,8.91-5.53c5.16-0.93,10.3-0.48,15.39,0.67c0.51,0.12,1.02,0.3,1.5,0.53c0.42,0.19,0.83,0.43,1.17,0.74
		c1.38,1.24,1.37,5.8,0.01,7.05c-0.77,0.71-1.64,0.67-2.6,0.44c-3.9-0.9-7.87-1.12-11.86-1.01c-2.31,0.07-3.77,1.13-4.41,3.05
		c-0.64,1.94-0.1,3.57,1.65,4.62c0.91,0.54,1.91,0.91,2.88,1.34c2.97,1.32,5.94,2.62,8.9,3.96c8.92,4.05,7.87,15.21,2.39,19.78
		c-2.98,2.48-6.38,3.71-10.21,3.9c-0.86,0.04-1.72,0.01-2.59,0.01C96.16,186.21,96.15,186.27,96.15,186.32z"/>
	<path class="st0" d="M251.75,238.18c0-2.79,0.09-5.57-0.02-8.36c-0.3-7.57,5.92-13.68,13.48-14.29c4.03-0.32,8.09-0.15,12.08,0.69
		c5.56,1.17,4.99,2.63,4.8,6.75c-0.08,1.86-1.3,2.7-3.15,2.32c-3.59-0.73-7.23-0.87-10.87-1.1c-4.18-0.27-6.31,2.84-6.23,6.04
		c0.14,5.37,0.05,10.74,0.03,16.12c-0.01,1.67,0.44,3.14,1.65,4.32c0.94,0.91,2.02,1.44,3.37,1.46c3.86,0.05,7.68-0.2,11.47-1.01
		c2.48-0.53,3.65,0.36,3.79,2.87c0.24,4.19-0.55,5.36-4.69,6.11c-4.38,0.8-8.8,1.13-13.26,0.61c-6.2-0.72-12.69-6.37-12.47-13.97
		C251.82,243.89,251.75,241.04,251.75,238.18z"/>
	<path class="st0" d="M94.04,238.23c0,2.65,0,5.31,0,7.96c0,1.57,0.4,3.02,1.48,4.21c0.98,1.08,2.15,1.71,3.65,1.73
		c3.86,0.04,7.68-0.2,11.46-1.01c2.51-0.54,3.64,0.35,3.7,2.9c0.02,0.73-0.04,1.46,0.01,2.19c0.11,1.56-0.66,2.58-2.03,3.06
		c-1.43,0.5-2.91,0.95-4.41,1.12c-3.75,0.44-7.51,0.85-11.3,0.33c-7.34-1-12.54-6.64-12.69-14.02c-0.11-5.7-0.09-11.41,0-17.11
		c0.13-8.63,7.02-13.57,13.56-14.06c4.04-0.3,8.09-0.11,12.08,0.7c0.52,0.1,1.03,0.23,1.54,0.39c2.75,0.86,3.23,1.52,3.24,4.41
		c0,0.6,0.03,1.2-0.01,1.79c-0.13,1.97-1.22,2.88-3.19,2.47c-3.52-0.73-7.09-0.98-10.67-1.06c-4.24-0.09-6.38,1.97-6.43,6.24
		C94.02,233.06,94.04,235.64,94.04,238.23z"/>
	<path class="st0" d="M224.95,154.65c0,9.15,0,18.3,0,27.45c0,0.53,0.03,1.06-0.01,1.59c-0.12,1.56-0.8,2.35-2.34,2.43
		c-1.85,0.1-3.71,0.09-5.57,0c-1.47-0.07-2.13-0.82-2.26-2.26c-0.04-0.46-0.02-0.93-0.02-1.39c0-18.37,0-36.73,0-55.1
		c0-3.01,0.74-3.87,3.7-4.28c1.18-0.17,2.36-0.36,3.55-0.42c1.7-0.09,2.61,0.68,2.85,2.35c0.08,0.59,0.05,1.19,0.05,1.79
		c0,9.28,0,18.57,0,27.85C224.92,154.65,224.93,154.65,224.95,154.65z"/>
	<path class="st0" d="M218.59,243.13c0-4.11-0.07-8.23,0.03-12.34c0.05-1.91,0.19-3.88,0.72-5.69c1.55-5.34,6.82-9.49,12.41-9.62
		c4.37-0.1,8.75,0.19,13.12,0.38c1.55,0.07,2.25,0.87,2.35,2.42c0.06,0.99,0.05,1.99,0.01,2.99c-0.06,1.85-1.1,2.95-2.98,3.03
		c-1.32,0.06-2.65-0.06-3.98-0.09c-1.92-0.04-3.85-0.12-5.77-0.11c-3.33,0.01-5.64,2.18-5.87,5.49c-0.07,1.06-0.02,2.12-0.02,3.18
		c0,8.03,0,16.06,0,24.09c0,0.6,0.03,1.2-0.03,1.79c-0.12,1.38-0.69,2.13-2.08,2.22c-1.91,0.13-3.85,0.13-5.76,0
		c-1.39-0.09-1.97-0.78-2.08-2.21c-0.11-1.45-0.08-2.92-0.08-4.38C218.58,250.56,218.59,246.85,218.59,243.13L218.59,243.13z"/>
	<path class="st0" d="M299.3,148.93c1.92,0,3.76,0,5.61,0c2.52,0,5.04,0,7.56,0.01c0.46,0,0.94-0.02,1.38,0.1
		c0.75,0.19,1.02,0.95,0.52,1.54c-0.38,0.45-0.89,0.79-1.37,1.14c-3.42,2.5-6.85,4.99-10.37,7.55c0.27,0.87,0.5,1.68,0.76,2.48
		c1.04,3.21,2.09,6.42,3.13,9.63c0.16,0.5,0.4,1.01,0.44,1.52c0.03,0.41-0.05,1.01-0.32,1.22c-0.27,0.21-0.88,0.14-1.26-0.01
		c-0.48-0.19-0.88-0.58-1.31-0.89c-3.38-2.45-6.76-4.9-10.22-7.42c-0.46,0.27-0.92,0.5-1.34,0.8c-2.8,2.01-5.58,4.04-8.37,6.07
		c-0.48,0.35-0.96,0.71-1.45,1.05c-0.59,0.41-1.29,1.07-1.91,0.38c-0.33-0.36-0.3-1.26-0.12-1.83c1.14-3.67,2.36-7.31,3.55-10.96
		c0.2-0.62,0.39-1.26,0.6-1.98c-0.49-0.4-0.93-0.78-1.4-1.13c-2.94-2.15-5.9-4.29-8.84-6.43c-0.43-0.31-0.92-0.58-1.24-0.98
		c-0.25-0.32-0.41-0.84-0.34-1.22c0.05-0.26,0.55-0.52,0.9-0.6c0.44-0.11,0.92-0.05,1.39-0.05c3.71-0.01,7.42-0.01,11.14-0.02
		c1.87-0.01,1.88-0.01,2.47-1.82c1.18-3.58,2.35-7.17,3.52-10.76c0.14-0.44,0.26-0.91,0.5-1.29c0.46-0.73,1.3-0.71,1.74,0.05
		c0.23,0.39,0.34,0.86,0.49,1.3c1.16,3.52,2.31,7.05,3.47,10.57C298.77,147.58,299.02,148.18,299.3,148.93z"/>
</g>
<path class="st0" d="M140.64,297.56c-0.51-1.06-1.57-1.89-2.77-1.89c-1.15,0-2.26,0.92-2.26,2.12c0,1.89,2.49,2.72,5.03,3.88
	c2.54,1.15,4.98,2.72,4.98,6.14c0,4.11-3.41,7.15-7.43,7.15c-3.14,0-6.32-1.8-7.48-4.85l3.55-1.61c0.88,1.61,1.94,2.77,3.92,2.77
	c1.75,0,3.28-1.2,3.28-3.05c0-1.15-0.55-1.71-1.52-2.35l-4.06-2.17c-2.4-1.29-4.15-2.49-4.15-5.45c0-3.51,2.86-6.28,6.37-6.28
	c2.63,0,4.75,1.43,5.91,3.78L140.64,297.56z"/>
<path class="st0" d="M155.31,330.48h-4.15v-31.53h-4.03v-3.88h4.03v-6.1h4.15v6.1h4.06v3.88h-4.06V330.48z"/>
<path class="st0" d="M184.67,303.47c0,6.51-5.08,11.49-11.54,11.49c-6.46,0-11.54-4.98-11.54-11.49c0-6.51,5.08-11.49,11.54-11.49
	C179.59,291.98,184.67,296.96,184.67,303.47z M165.75,303.47c0,4.06,3.28,7.52,7.38,7.52c4.11,0,7.38-3.46,7.38-7.52
	c0-4.11-3.28-7.52-7.38-7.52C169.02,295.95,165.75,299.36,165.75,303.47z"/>
<path class="st0" d="M192.44,296.13h0.14c1.02-2.54,3.14-4.15,5.91-4.15c1.2,0,2.4,0.42,3.41,1.06l-1.89,3.78
	c-0.74-0.65-1.57-0.88-2.54-0.88c-4.48,0-5.03,4.15-5.03,7.66v10.61h-4.15v-21.6h4.15V296.13z"/>
<path class="st0" d="M212.89,297.56c-0.51-1.06-1.57-1.89-2.77-1.89c-1.15,0-2.26,0.92-2.26,2.12c0,1.89,2.49,2.72,5.03,3.88
	c2.54,1.15,4.98,2.72,4.98,6.14c0,4.11-3.41,7.15-7.43,7.15c-3.14,0-6.32-1.8-7.48-4.85l3.55-1.61c0.88,1.61,1.94,2.77,3.92,2.77
	c1.75,0,3.28-1.2,3.28-3.05c0-1.15-0.55-1.71-1.52-2.35l-4.06-2.17c-2.4-1.29-4.15-2.49-4.15-5.45c0-3.51,2.86-6.28,6.37-6.28
	c2.63,0,4.75,1.43,5.91,3.78L212.89,297.56z"/>
<path class="st0" d="M242.19,314.22h-4.15v-3.37h-0.09c-1.66,2.45-4.25,4.11-7.34,4.11c-6.6,0-10.34-5.49-10.34-11.68
	c0-5.91,3.92-11.31,10.2-11.31c3.18,0,5.77,1.66,7.48,4.25h0.09v-3.6h4.15V314.22z M238.27,303.42c0-4.2-2.54-7.75-7.01-7.75
	c-4.29,0-6.83,3.74-6.83,7.75c0,4.06,2.45,7.85,6.83,7.85C235.77,311.27,238.27,307.67,238.27,303.42z"/>
<path class="st0" d="M251.19,314.22h-4.15v-35.15h4.15V314.22z"/>
<path class="st0" d="M259.65,304.12c0.05,3.69,2.54,7.15,6.51,7.15c3.18,0,4.89-1.61,6.46-4.2l3.51,1.98
	c-2.03,3.74-5.82,5.91-10.01,5.91c-6.6,0-10.61-4.98-10.61-11.35c0-6.64,3.55-11.63,10.52-11.63c6.88,0,10.11,5.08,10.11,11.49v0.65
	H259.65z M271.97,300.98c-0.51-3.23-2.63-5.4-5.95-5.4c-3.23,0-5.63,2.31-6.14,5.4H271.97z"/>
<path class="st0" d="M284.11,295.53h0.09c1.29-2.31,3.88-3.55,6.51-3.55c6.09,0,7.66,4.11,7.66,9.37v12.87h-4.15v-12.37
	c0-3.69-0.51-6.18-4.75-6.18c-5.35,0-5.35,4.71-5.35,8.63v9.92h-4.15v-21.6h4.15V295.53z"/>
</svg>
