<?xml version="1.0" encoding="utf-8"?>
<!-- Generator: Adobe Illustrator 24.1.0, SVG Export Plug-In . SVG Version: 6.00 Build 0)  -->
<svg version="1.1" id="Layer_1" xmlns="http://www.w3.org/2000/svg" xmlns:xlink="http://www.w3.org/1999/xlink" x="0px" y="0px"
	 viewBox="0 0 424.48 424.48" style="enable-background:new 0 0 424.48 424.48;" xml:space="preserve">
<style type="text/css">
	.st0{fill:#FFFFFF;}
</style>
<g>
	<g>
		<defs>
			<circle id="SVGID_1_" cx="212.24" cy="212.24" r="212.24"/>
		</defs>
		<use xlink:href="#SVGID_1_"  style="overflow:visible;fill:#90B9CC;"/>
		<clipPath id="SVGID_2_">
			<use xlink:href="#SVGID_1_"  style="overflow:visible;"/>
		</clipPath>
	</g>
</g>
<g>
	<g>
		<path class="st0" d="M76.09,183.25c-0.95-1.99-2.95-3.56-5.2-3.56c-2.17,0-4.25,1.73-4.25,3.99c0,3.56,4.68,5.12,9.45,7.28
			c4.77,2.17,9.37,5.12,9.37,11.53c0,7.72-6.42,13.44-13.96,13.44c-5.9,0-11.88-3.38-14.05-9.11l6.68-3.04
			c1.65,3.04,3.64,5.2,7.37,5.2c3.3,0,6.16-2.25,6.16-5.72c0-2.17-1.04-3.21-2.86-4.42l-7.63-4.08c-4.51-2.43-7.81-4.68-7.81-10.23
			c0-6.59,5.38-11.8,11.97-11.8c4.94,0,8.93,2.69,11.1,7.11L76.09,183.25z"/>
		<path class="st0" d="M103.65,245.12h-7.81v-59.26h-7.57v-7.29h7.57V167.1h7.81v11.47h7.63v7.29h-7.63V245.12z"/>
		<path class="st0" d="M158.83,194.35c0,12.23-9.54,21.6-21.68,21.6c-12.14,0-21.68-9.37-21.68-21.6s9.54-21.6,21.68-21.6
			C149.29,172.75,158.83,182.12,158.83,194.35z M123.27,194.35c0,7.63,6.16,14.14,13.88,14.14s13.88-6.5,13.88-14.14
			c0-7.72-6.16-14.14-13.88-14.14S123.27,186.63,123.27,194.35z"/>
		<path class="st0" d="M173.45,180.56h0.26c1.91-4.77,5.9-7.81,11.1-7.81c2.25,0,4.51,0.78,6.42,1.99l-3.56,7.11
			c-1.39-1.21-2.95-1.65-4.77-1.65c-8.41,0-9.45,7.81-9.45,14.4v19.95h-7.81v-40.59h7.81V180.56z"/>
		<path class="st0" d="M211.86,183.25c-0.95-1.99-2.95-3.56-5.2-3.56c-2.17,0-4.25,1.73-4.25,3.99c0,3.56,4.68,5.12,9.45,7.28
			c4.77,2.17,9.37,5.12,9.37,11.53c0,7.72-6.42,13.44-13.96,13.44c-5.9,0-11.88-3.38-14.05-9.11l6.68-3.04
			c1.65,3.04,3.64,5.2,7.37,5.2c3.3,0,6.16-2.25,6.16-5.72c0-2.17-1.04-3.21-2.86-4.42l-7.63-4.08c-4.51-2.43-7.81-4.68-7.81-10.23
			c0-6.59,5.38-11.8,11.97-11.8c4.94,0,8.94,2.69,11.1,7.11L211.86,183.25z"/>
		<path class="st0" d="M266.93,214.56h-7.81v-6.33h-0.17c-3.12,4.6-7.98,7.72-13.79,7.72c-12.4,0-19.43-10.32-19.43-21.94
			c0-11.1,7.37-21.25,19.17-21.25c5.98,0,10.84,3.12,14.05,7.98h0.17v-6.76h7.81V214.56z M259.56,194.26
			c0-7.89-4.77-14.57-13.18-14.57c-8.07,0-12.84,7.02-12.84,14.57c0,7.63,4.6,14.74,12.84,14.74
			C254.88,209.01,259.56,202.24,259.56,194.26z"/>
		<path class="st0" d="M282.78,214.56h-7.81v-66.07h7.81V214.56z"/>
		<path class="st0" d="M298.16,195.56c0.09,6.94,4.77,13.44,12.23,13.44c5.99,0,9.19-3.04,12.14-7.89l6.59,3.73
			c-3.82,7.02-10.93,11.1-18.82,11.1c-12.4,0-19.95-9.37-19.95-21.34c0-12.49,6.68-21.86,19.77-21.86c12.92,0,19,9.54,19,21.6v1.21
			H298.16z M321.31,189.67c-0.95-6.07-4.94-10.15-11.19-10.15c-6.07,0-10.58,4.34-11.53,10.15H321.31z"/>
		<path class="st0" d="M343.6,179.43h0.17c2.43-4.34,7.29-6.68,12.23-6.68c11.45,0,14.4,7.72,14.4,17.61v24.2h-7.81v-23.24
			c0-6.94-0.95-11.62-8.93-11.62c-10.06,0-10.06,8.85-10.06,16.22v18.65h-7.81v-40.59h7.81V179.43z"/>
	</g>
</g>
<g>
	<path class="st0" d="M133.18,260.19h-6.13v-26.78h5.76v4.38c1.22-1.86,2.61-3.22,4.17-4.08c1.55-0.86,3.38-1.29,5.49-1.29
		c2.09,0,3.82,0.44,5.2,1.31c1.38,0.88,2.42,2.21,3.14,4c1.41-1.84,2.91-3.19,4.51-4.04c1.59-0.85,3.4-1.27,5.44-1.27
		c1.77,0,3.31,0.33,4.63,0.97c1.32,0.65,2.34,1.6,3.08,2.84c0.34,0.58,0.59,1.28,0.75,2.09c0.16,0.81,0.24,1.97,0.24,3.47v2.15
		v16.24h-6.13v-13.76c0-3.6-0.38-5.96-1.14-7.1s-2.12-1.71-4.08-1.71c-2.41,0-4.13,0.77-5.16,2.3c-1.03,1.54-1.54,4.22-1.54,8.06
		v12.2h-6.19v-13.76c0-3.31-0.4-5.61-1.2-6.89c-0.8-1.28-2.18-1.92-4.14-1.92c-1.21,0-2.31,0.27-3.3,0.82
		c-1,0.55-1.79,1.3-2.37,2.26c-0.38,0.62-0.64,1.38-0.79,2.29c-0.15,0.9-0.23,2.57-0.23,5V260.19z"/>
	<path class="st0" d="M173.03,246.83c0-1.96,0.37-3.81,1.12-5.55c0.74-1.74,1.81-3.29,3.21-4.65c1.37-1.34,2.96-2.36,4.75-3.08
		c1.79-0.71,3.66-1.07,5.62-1.07c2.01,0,3.91,0.36,5.69,1.07c1.78,0.72,3.38,1.77,4.79,3.16c1.41,1.38,2.49,2.93,3.22,4.66
		s1.1,3.55,1.1,5.45c0,1.98-0.36,3.83-1.09,5.57c-0.72,1.73-1.78,3.27-3.18,4.6c-1.47,1.41-3.1,2.48-4.89,3.21
		c-1.79,0.73-3.67,1.09-5.65,1.09c-1.94,0-3.8-0.36-5.59-1.09c-1.79-0.72-3.38-1.77-4.77-3.15c-1.41-1.39-2.49-2.96-3.22-4.69
		S173.03,248.79,173.03,246.83z M196.05,246.89c0-2.49-0.8-4.59-2.4-6.31c-1.6-1.72-3.56-2.58-5.88-2.58c-2.3,0-4.25,0.86-5.86,2.58
		c-1.61,1.72-2.42,3.83-2.42,6.31c0,2.49,0.8,4.59,2.42,6.31s3.56,2.58,5.86,2.58c2.3,0,4.25-0.86,5.86-2.58
		S196.05,249.37,196.05,246.89z"/>
	<path class="st0" d="M212.48,237.68c0.66-1.77,1.53-3.08,2.61-3.93s2.42-1.27,4.03-1.27c0.87,0,1.72,0.1,2.56,0.31
		c0.84,0.21,1.66,0.51,2.47,0.9l-2.2,5.2c-0.53-0.38-1.1-0.65-1.71-0.83c-0.61-0.18-1.29-0.27-2.05-0.27
		c-2.03,0-3.49,0.82-4.38,2.44c-0.89,1.63-1.33,4.36-1.33,8.21v11.75h-6.13v-26.83h6.13V237.68z"/>
	<path class="st0" d="M250.19,258.52c0,5.24-1.04,8.92-3.14,11.06c-2.09,2.14-5.61,3.21-10.56,3.21c-3.69,0-6.64-0.78-8.84-2.33
		s-3.32-3.62-3.36-6.2l6.58-0.03c0.09,1.15,0.63,2.02,1.61,2.63c0.98,0.6,2.35,0.9,4.12,0.9c2.62,0,4.5-0.57,5.65-1.72
		c1.15-1.15,1.73-3.07,1.75-5.76l0.06-3.56c-1.09,1.54-2.37,2.69-3.83,3.45c-1.46,0.75-3.13,1.13-5.01,1.13
		c-3.79,0-6.77-1.29-8.94-3.88s-3.26-6.13-3.26-10.64c0-4.27,1.11-7.73,3.33-10.35s5.12-3.94,8.7-3.94c2.18,0,4.05,0.46,5.61,1.37
		c1.55,0.91,2.69,2.23,3.4,3.94v-4.38h6.13V258.52z M244.23,246.72c0-2.77-0.65-4.92-1.93-6.47c-1.29-1.54-3.09-2.32-5.41-2.32
		s-4.14,0.8-5.47,2.39c-1.33,1.59-1.99,3.8-1.99,6.62c0,2.84,0.64,5.04,1.92,6.58c1.28,1.54,3.09,2.32,5.42,2.32
		c2.2,0,4-0.84,5.38-2.51C243.53,251.65,244.23,249.45,244.23,246.72z"/>
	<path class="st0" d="M281.79,247.71h-21.41c0.15,2.5,0.89,4.46,2.23,5.86c1.34,1.4,3.12,2.1,5.34,2.1c1.98,0,3.62-0.41,4.94-1.24
		c1.32-0.83,2.47-2.17,3.45-4.01l5.17,2.88c-1.51,2.69-3.37,4.7-5.59,6.02c-2.22,1.32-4.83,1.98-7.82,1.98
		c-4.29,0-7.71-1.31-10.25-3.93c-2.54-2.62-3.81-6.11-3.81-10.48c0-4.2,1.31-7.65,3.94-10.35c2.63-2.7,6-4.05,10.13-4.05
		c4.31,0,7.67,1.23,10.08,3.7c2.41,2.47,3.62,5.92,3.62,10.37V247.71z M275.43,243.58c-0.24-1.92-0.98-3.38-2.2-4.39
		c-1.22-1.01-2.9-1.51-5.03-1.51c-2.02,0-3.63,0.49-4.86,1.47c-1.22,0.98-2.08,2.46-2.57,4.43H275.43z"/>
	<path class="st0" d="M285.51,260.19v-26.78h5.76v4.38c1.22-1.84,2.66-3.19,4.32-4.04s3.67-1.27,6.04-1.27c2,0,3.7,0.32,5.1,0.95
		c1.4,0.63,2.5,1.57,3.29,2.81c0.47,0.73,0.81,1.59,1.02,2.57c0.21,0.98,0.31,2.69,0.31,5.14v16.24h-6.19v-13.76
		c0-3.52-0.43-5.86-1.29-7.02c-0.86-1.16-2.38-1.74-4.56-1.74c-1.43,0-2.71,0.26-3.83,0.79c-1.12,0.53-2,1.27-2.64,2.23
		c-0.45,0.64-0.77,1.46-0.95,2.47c-0.18,1.01-0.27,2.61-0.27,4.82v12.2H285.51z"/>
</g>
</svg>
