<?xml version="1.0" encoding="utf-8"?>
<!-- Generator: Adobe Illustrator 24.1.0, SVG Export Plug-In . SVG Version: 6.00 Build 0)  -->
<svg version="1.1" id="Layer_1" xmlns="http://www.w3.org/2000/svg" xmlns:xlink="http://www.w3.org/1999/xlink" x="0px" y="0px"
	 viewBox="0 0 424.48 424.48" style="enable-background:new 0 0 424.48 424.48;" xml:space="preserve">
<style type="text/css">
	.st0{fill:#FFFFFF;}
</style>
<g>
	<g>
		<defs>
			<circle id="SVGID_1_" cx="212.24" cy="212.24" r="212.24"/>
		</defs>
		<use xlink:href="#SVGID_1_"  style="overflow:visible;fill:#459597;"/>
		<clipPath id="SVGID_2_">
			<use xlink:href="#SVGID_1_"  style="overflow:visible;"/>
		</clipPath>
	</g>
</g>
<g>
	<g>
		<path class="st0" d="M76.09,183.25c-0.95-1.99-2.95-3.56-5.2-3.56c-2.17,0-4.25,1.73-4.25,3.99c0,3.56,4.68,5.12,9.45,7.28
			c4.77,2.17,9.37,5.12,9.37,11.53c0,7.72-6.42,13.44-13.96,13.44c-5.9,0-11.88-3.38-14.05-9.11l6.68-3.04
			c1.65,3.04,3.64,5.2,7.37,5.2c3.3,0,6.16-2.25,6.16-5.72c0-2.17-1.04-3.21-2.86-4.42l-7.63-4.08c-4.51-2.43-7.81-4.68-7.81-10.23
			c0-6.59,5.38-11.8,11.97-11.8c4.94,0,8.93,2.69,11.1,7.11L76.09,183.25z"/>
		<path class="st0" d="M103.65,245.12h-7.81v-59.26h-7.57v-7.29h7.57V167.1h7.81v11.47h7.63v7.29h-7.63V245.12z"/>
		<path class="st0" d="M158.83,194.35c0,12.23-9.54,21.6-21.68,21.6c-12.14,0-21.68-9.37-21.68-21.6s9.54-21.6,21.68-21.6
			C149.29,172.75,158.83,182.12,158.83,194.35z M123.27,194.35c0,7.63,6.16,14.14,13.88,14.14s13.88-6.5,13.88-14.14
			c0-7.72-6.16-14.14-13.88-14.14S123.27,186.63,123.27,194.35z"/>
		<path class="st0" d="M173.45,180.56h0.26c1.91-4.77,5.9-7.81,11.1-7.81c2.25,0,4.51,0.78,6.42,1.99l-3.56,7.11
			c-1.39-1.21-2.95-1.65-4.77-1.65c-8.41,0-9.45,7.81-9.45,14.4v19.95h-7.81v-40.59h7.81V180.56z"/>
		<path class="st0" d="M211.86,183.25c-0.95-1.99-2.95-3.56-5.2-3.56c-2.17,0-4.25,1.73-4.25,3.99c0,3.56,4.68,5.12,9.45,7.28
			c4.77,2.17,9.37,5.12,9.37,11.53c0,7.72-6.42,13.44-13.96,13.44c-5.9,0-11.88-3.38-14.05-9.11l6.68-3.04
			c1.65,3.04,3.64,5.2,7.37,5.2c3.3,0,6.16-2.25,6.16-5.72c0-2.17-1.04-3.21-2.86-4.42l-7.63-4.08c-4.51-2.43-7.81-4.68-7.81-10.23
			c0-6.59,5.38-11.8,11.97-11.8c4.94,0,8.94,2.69,11.1,7.11L211.86,183.25z"/>
		<path class="st0" d="M266.93,214.56h-7.81v-6.33h-0.17c-3.12,4.6-7.98,7.72-13.79,7.72c-12.4,0-19.43-10.32-19.43-21.94
			c0-11.1,7.37-21.25,19.17-21.25c5.98,0,10.84,3.12,14.05,7.98h0.17v-6.76h7.81V214.56z M259.56,194.26
			c0-7.89-4.77-14.57-13.18-14.57c-8.07,0-12.84,7.02-12.84,14.57c0,7.63,4.6,14.74,12.84,14.74
			C254.88,209.01,259.56,202.24,259.56,194.26z"/>
		<path class="st0" d="M282.78,214.56h-7.81v-66.07h7.81V214.56z"/>
		<path class="st0" d="M298.16,195.56c0.09,6.94,4.77,13.44,12.23,13.44c5.99,0,9.19-3.04,12.14-7.89l6.59,3.73
			c-3.82,7.02-10.93,11.1-18.82,11.1c-12.4,0-19.95-9.37-19.95-21.34c0-12.49,6.68-21.86,19.77-21.86c12.92,0,19,9.54,19,21.6v1.21
			H298.16z M321.31,189.67c-0.95-6.07-4.94-10.15-11.19-10.15c-6.07,0-10.58,4.34-11.53,10.15H321.31z"/>
		<path class="st0" d="M343.6,179.43h0.17c2.43-4.34,7.29-6.68,12.23-6.68c11.45,0,14.4,7.72,14.4,17.61v24.2h-7.81v-23.24
			c0-6.94-0.95-11.62-8.93-11.62c-10.06,0-10.06,8.85-10.06,16.22v18.65h-7.81v-40.59h7.81V179.43z"/>
	</g>
	<g>
		<path class="st0" d="M159.5,258.51l10.1-10.1h6.83l-11.48,11.14l12.63,15.73h-6.72l-9.59-12.23l-1.78,1.78v10.45h-5.17v-45.29
			h5.17V258.51z"/>
		<path class="st0" d="M189.69,265.17l7.75-16.76h5.8l-13.55,27.78L176.2,248.4h5.8L189.69,265.17z"/>
		<path class="st0" d="M209.15,262.7c0.06,4.59,3.16,8.9,8.09,8.9c3.96,0,6.08-2.01,8.04-5.22l4.36,2.47
			c-2.53,4.65-7.23,7.35-12.46,7.35c-8.21,0-13.2-6.2-13.2-14.12c0-8.27,4.42-14.47,13.09-14.47c8.55,0,12.57,6.31,12.57,14.29v0.8
			H209.15z M224.48,258.79c-0.63-4.02-3.27-6.72-7.41-6.72c-4.02,0-7,2.87-7.63,6.72H224.48z"/>
		<path class="st0" d="M239.46,275.27h-5.17v-45.29h5.17V275.27z"/>
		<path class="st0" d="M266.84,271.08h-0.11c-2.07,3.04-5.34,5.11-9.13,5.11c-8.27,0-12.86-6.83-12.86-14.52
			c0-7.35,4.88-14.06,12.63-14.06c4.02,0,7.23,2.07,9.36,5.28h0.11v-22.9H272v45.29h-5.17V271.08z M267.12,261.84
			c0-5.22-3.16-9.64-8.73-9.64c-5.34,0-8.5,4.65-8.5,9.64c0,5.05,3.04,9.76,8.5,9.76C264.02,271.6,267.12,267.12,267.12,261.84z"/>
	</g>
</g>
</svg>
